<?xml version="1.0" encoding="UTF-8" standalone="no"?>
<!DOCTYPE svg PUBLIC "-//W3C//DTD SVG 1.1//EN" "http://www.w3.org/Graphics/SVG/1.1/DTD/svg11.dtd">
<svg version="1.1" xmlns="http://www.w3.org/2000/svg" xmlns:xlink="http://www.w3.org/1999/xlink" preserveAspectRatio="xMidYMid meet" viewBox="33.08178019973457 47.0691631964919 291.32075471698147 291.32075471698136" width="60" height="60"><defs><path d="M251.57 47.07C291.8 47.07 324.4 79.68 324.4 119.9C324.4 163.6 324.4 221.86 324.4 265.56C324.4 305.78 291.8 338.39 251.57 338.39C207.87 338.39 149.61 338.39 105.91 338.39C65.69 338.39 33.08 305.78 33.08 265.56C33.08 221.86 33.08 163.6 33.08 119.9C33.08 79.68 65.69 47.07 105.91 47.07C149.61 47.07 207.87 47.07 251.57 47.07Z" id="b1sdDjo7lr"></path><path d="M58.02 241.95L128.34 171.63L152.8 196.09L82.48 266.41L58.02 241.95Z" id="h2S2qw4MpN"></path><path d="M279.38 151.79L266.91 196.73L234.43 164.25L201.96 131.77L246.9 119.31L291.84 106.84L279.38 151.79Z" id="a1fNUFCE2Q"></path><path d="M136.44 178.42L190.85 232.83L166.39 257.29L111.98 202.88L136.44 178.42Z" id="gqotmIjBw"></path><path d="M162.65 213.03L232.97 142.71L257.43 167.16L187.11 237.49L162.65 213.03Z" id="a1lr3A6SL6"></path></defs><g><g><g><use xlink:href="#b1sdDjo7lr" opacity="1" fill="#72bfcd" fill-opacity="1"></use><g><use xlink:href="#b1sdDjo7lr" opacity="1" fill-opacity="0" stroke="#aafd60" stroke-width="0" stroke-opacity="1"></use></g></g><g><g><use xlink:href="#h2S2qw4MpN" opacity="1" fill="#ffffff" fill-opacity="1"></use></g><g><use xlink:href="#a1fNUFCE2Q" opacity="1" fill="#ffffff" fill-opacity="1"></use></g><g><use xlink:href="#gqotmIjBw" opacity="1" fill="#ffffff" fill-opacity="1"></use></g><g><use xlink:href="#a1lr3A6SL6" opacity="1" fill="#ffffff" fill-opacity="1"></use></g></g></g></g></svg>