<?xml version="1.0" encoding="UTF-8" standalone="no"?>
<!DOCTYPE svg PUBLIC "-//W3C//DTD SVG 1.1//EN" "http://www.w3.org/Graphics/SVG/1.1/DTD/svg11.dtd">
<svg version="1.1" xmlns="http://www.w3.org/2000/svg" xmlns:xlink="http://www.w3.org/1999/xlink" preserveAspectRatio="xMidYMid meet" viewBox="332.08178019973457 326.0691631964919 295.3207547169816 295.32075471698136" width="60" height="60"><defs><path d="M551.57 327.07C591.8 327.07 624.4 359.68 624.4 399.9C624.4 443.6 624.4 501.86 624.4 545.56C624.4 585.78 591.8 618.39 551.57 618.39C507.87 618.39 449.61 618.39 405.91 618.39C365.69 618.39 333.08 585.78 333.08 545.56C333.08 501.86 333.08 443.6 333.08 399.9C333.08 359.68 365.69 327.07 405.91 327.07C449.61 327.07 507.87 327.07 551.57 327.07Z" id="c48RHmQXsP"></path><path d="M402.9 373.14L485.63 428.34L466.43 457.11L383.7 401.91L402.9 373.14Z" id="bkRiWOD0"></path><path d="M534.65 572.56L488.14 569.14L513.63 530.93L539.12 492.72L560.14 534.36L581.16 575.99L534.65 572.56Z" id="c5SgZWldb0"></path><path d="M480.55 437.61L437.84 501.61L409.07 482.42L451.78 418.41L480.55 437.61Z" id="gPehmRiiA"></path><path d="M451.74 470.08L534.47 525.28L515.27 554.05L432.55 498.85L451.74 470.08Z" id="a8GbXj7Iy"></path></defs><g><g><use xlink:href="#c48RHmQXsP" opacity="1" fill="#cd7272" fill-opacity="1"></use><g><use xlink:href="#c48RHmQXsP" opacity="1" fill-opacity="0" stroke="#aafd60" stroke-width="0" stroke-opacity="1"></use></g></g><g><g><use xlink:href="#bkRiWOD0" opacity="1" fill="#ffffff" fill-opacity="1"></use></g><g><use xlink:href="#c5SgZWldb0" opacity="1" fill="#ffffff" fill-opacity="1"></use></g><g><use xlink:href="#gPehmRiiA" opacity="1" fill="#ffffff" fill-opacity="1"></use></g><g><use xlink:href="#a8GbXj7Iy" opacity="1" fill="#ffffff" fill-opacity="1"></use></g></g></g></svg>